<?xml version="1.0" encoding="UTF-8" standalone="no"?>
<svg
   xmlns:dc="http://purl.org/dc/elements/1.1/"
   xmlns:cc="http://creativecommons.org/ns#"
   xmlns:rdf="http://www.w3.org/1999/02/22-rdf-syntax-ns#"
   xmlns:svg="http://www.w3.org/2000/svg"
   xmlns="http://www.w3.org/2000/svg"
   xmlns:sodipodi="http://sodipodi.sourceforge.net/DTD/sodipodi-0.dtd"
   xmlns:inkscape="http://www.inkscape.org/namespaces/inkscape"
   width="256"
   height="256"
   viewBox="0 0 256 256"
   version="1.1"
   id="svg8"
   inkscape:version="1.0.2-2 (e86c870879, 2021-01-15)"
   sodipodi:docname="CounterString.svg"
   inkscape:export-filename="B:\Projekte\Github\counter-string-generator\Documentation\CounterString.png"
   inkscape:export-xdpi="96"
   inkscape:export-ydpi="96">
  <defs
     id="defs2" />
  <sodipodi:namedview
     id="base"
     pagecolor="#ffffff"
     bordercolor="#666666"
     borderopacity="1.0"
     inkscape:pageopacity="0.0"
     inkscape:pageshadow="2"
     inkscape:zoom="1.4142136"
     inkscape:cx="79.356238"
     inkscape:cy="209.47733"
     inkscape:document-units="px"
     inkscape:current-layer="layer1"
     inkscape:document-rotation="0"
     showgrid="false"
     units="px"
     scale-x="0.1"
     inkscape:window-width="2560"
     inkscape:window-height="1377"
     inkscape:window-x="-8"
     inkscape:window-y="-8"
     inkscape:window-maximized="1" />
  <metadata
     id="metadata5">
    <rdf:RDF>
      <cc:Work
         rdf:about="">
        <dc:format>image/svg+xml</dc:format>
        <dc:type
           rdf:resource="http://purl.org/dc/dcmitype/StillImage" />
        <dc:title></dc:title>
      </cc:Work>
    </rdf:RDF>
  </metadata>
  <g
     inkscape:label="Layer 1"
     inkscape:groupmode="layer"
     id="layer1">
    <rect
       style="fill:#ffffff;fill-rule:evenodd;stroke:none;stroke-width:7.6409;stroke-miterlimit:4;stroke-dasharray:none"
       id="rect906"
       width="248.3591"
       height="120.3591"
       x="3.8204501"
       y="67.82045" />
    <rect
       style="fill:#cccccc;stroke:none;stroke-width:2.06251;stroke-miterlimit:4;stroke-dasharray:none"
       id="rect910"
       width="248.3591"
       height="8"
       x="3.8204501"
       y="91.82045" />
    <rect
       style="fill:#cccccc;stroke:none;stroke-width:2.06251;stroke-miterlimit:4;stroke-dasharray:none"
       id="rect908"
       width="248.3591"
       height="8"
       x="3.8204501"
       y="156.17955" />
    <rect
       style="fill:#b3b3b3;stroke:none;stroke-width:3.57237;stroke-miterlimit:4;stroke-dasharray:none"
       id="rect904"
       width="248.3591"
       height="24"
       x="3.8204501"
       y="164.17955" />
    <rect
       style="fill:#b3b3b3;stroke:none;stroke-width:3.57237;stroke-miterlimit:4;stroke-dasharray:none"
       id="rect902"
       width="248.3591"
       height="24"
       x="3.8204501"
       y="67.82045" />
    <rect
       style="fill:none;fill-rule:evenodd;stroke:#000000;stroke-width:7.6409;stroke-miterlimit:4;stroke-dasharray:none"
       id="rect10"
       width="248.3591"
       height="120.3591"
       x="3.8204501"
       y="67.82045" />
    <g
       aria-label="0 0 6"
       id="text837"
       style="font-style:normal;font-weight:normal;font-size:86.3994px;line-height:1.25;font-family:sans-serif;fill:#000000;fill-opacity:1;stroke:none;stroke-width:2.15998">
      <path
         d="m 63.917636,127.95781 q 0,16.91707 -5.315588,24.84827 -5.273401,7.88901 -16.410823,7.88901 -11.306171,0 -16.537385,-8.01557 -5.189026,-8.01557 -5.189026,-24.63733 0,-16.74832 5.2734,-24.7217 5.273401,-8.015573 16.453011,-8.015573 11.306171,0 16.495198,8.142133 5.231213,8.09994 5.231213,24.51076 z m -11.095235,19.153 q 1.476552,-3.41717 1.982799,-8.01557 0.548433,-4.6406 0.548433,-11.13743 0,-6.41245 -0.548433,-11.13742 -0.506247,-4.72497 -2.024986,-8.01557 -1.476552,-3.24841 -4.049972,-4.89371 -2.531232,-1.6453 -6.539017,-1.6453 -3.965597,0 -6.581204,1.6453 -2.57342,1.6453 -4.092159,4.97809 -1.434365,3.12185 -1.982799,8.14213 -0.506246,5.02028 -0.506246,11.01086 0,6.5812 0.464059,11.01086 0.464059,4.42966 1.982799,7.93119 1.392177,3.29061 3.92341,5.02028 2.573419,1.72968 6.79214,1.72968 3.965597,0 6.581204,-1.6453 2.615607,-1.6453 4.049972,-4.97809 z"
         style="stroke-width:2.15998"
         id="path850" />
      <path
         d="m 149.22016,127.95781 q 0,16.91707 -5.31558,24.84827 -5.2734,7.88901 -16.41083,7.88901 -11.30617,0 -16.53738,-8.01557 -5.18903,-8.01557 -5.18903,-24.63733 0,-16.74832 5.2734,-24.7217 5.2734,-8.015573 16.45301,-8.015573 11.30617,0 16.4952,8.142133 5.23121,8.09994 5.23121,24.51076 z m -11.09523,19.153 q 1.47655,-3.41717 1.9828,-8.01557 0.54843,-4.6406 0.54843,-11.13743 0,-6.41245 -0.54843,-11.13742 -0.50625,-4.72497 -2.02499,-8.01557 -1.47655,-3.24841 -4.04997,-4.89371 -2.53123,-1.6453 -6.53902,-1.6453 -3.96559,0 -6.5812,1.6453 -2.57342,1.6453 -4.09216,4.97809 -1.43436,3.12185 -1.9828,8.14213 -0.50625,5.02028 -0.50625,11.01086 0,6.5812 0.46406,11.01086 0.46406,4.42966 1.9828,7.93119 1.39218,3.29061 3.92341,5.02028 2.57342,1.72968 6.79214,1.72968 3.9656,0 6.58121,-1.6453 2.6156,-1.6453 4.04997,-4.97809 z"
         style="stroke-width:2.15998"
         id="path852" />
    </g>
    <path
       id="path854"
       style="font-style:normal;font-weight:normal;font-size:86.3994px;line-height:1.25;font-family:sans-serif;fill:#000000;fill-opacity:1;stroke:none;stroke-width:2.15998"
       d="M 200.04492 67.820312 C 199.53442 68.363259 199.04086 68.921983 198.58008 69.513672 C 195.96447 72.860525 194.05116 76.685188 192.8418 80.988281 C 191.66056 85.291375 191.07031 90.228162 191.07031 95.796875 C 191.07031 101.22496 191.71603 105.86565 193.00977 109.71875 C 194.33163 113.57185 196.20236 116.66565 198.62109 119 C 200.56171 120.88437 202.79884 122.30353 205.33008 123.25977 C 207.8613 124.21601 210.67189 124.69531 213.76562 124.69531 C 219.8687 124.69531 225.01643 122.68396 229.20703 118.66211 C 233.42575 114.61214 235.53516 109.39605 235.53516 103.01172 C 235.53516 99.271119 234.90234 96.092169 233.63672 93.476562 C 232.39923 90.860956 230.54334 88.696082 228.06836 86.980469 C 225.93087 85.489855 223.83436 84.505464 221.78125 84.027344 C 219.75626 83.521097 217.40819 83.267578 214.73633 83.267578 C 211.72697 83.267578 209.06991 83.646883 206.76367 84.40625 C 204.48557 85.137497 202.16522 86.21993 199.80273 87.654297 C 200.39335 81.213717 202.48791 76.10857 206.08789 72.339844 C 208.05591 70.264194 210.39251 68.761252 213.0918 67.820312 L 200.04492 67.820312 z M 227.55273 67.820312 C 228.12951 68.012383 228.61267 68.212566 228.99609 68.417969 L 229.41797 68.417969 L 229.41797 67.820312 L 227.55273 67.820312 z M 212.75391 90.185547 C 214.46952 90.185547 216.11446 90.326175 217.68945 90.607422 C 219.26444 90.888675 220.69845 91.478913 221.99219 92.378906 C 223.76405 93.64452 225.0297 95.135949 225.78906 96.851562 C 226.57656 98.567176 226.9707 100.73205 226.9707 103.34766 C 226.9707 108.01638 225.80311 111.60236 223.46875 114.10547 C 221.1344 116.58045 217.92966 117.81836 213.85156 117.81836 C 212.0797 117.81836 210.43476 117.5371 208.91602 116.97461 C 207.4254 116.38399 206.03202 115.46992 204.73828 114.23242 C 203.13516 112.74181 201.86952 110.71756 200.94141 108.1582 C 200.04141 105.57072 199.5918 102.05505 199.5918 97.611328 C 199.5918 96.739461 199.60663 96.021484 199.63477 95.458984 C 199.66287 94.868364 199.7035 94.263278 199.75977 93.644531 C 201.92538 92.463291 204.03478 91.59179 206.08789 91.029297 C 208.141 90.466797 210.3633 90.185547 212.75391 90.185547 z " />
    <path
       id="rect891"
       style="fill:#000000;fill-rule:evenodd;stroke:#000000;stroke-width:0;stroke-miterlimit:4;stroke-dasharray:none"
       d="M 191.78711 147.57031 L 191.78711 154.95312 L 227.5625 154.95312 L 209.43164 188.17969 L 218.16406 188.17969 L 234.77539 156.97852 L 234.77539 147.57031 L 191.78711 147.57031 z " />
    <g
       aria-label="0 0 7"
       id="text841"
       style="font-style:normal;font-weight:normal;font-size:86.3994px;line-height:1.25;font-family:sans-serif;fill:#000000;fill-opacity:1;stroke:none;stroke-width:2.15998"
       transform="translate(0,-36)" />
    <path
       style="fill:none;stroke:#000000;stroke-width:8;stroke-linecap:butt;stroke-linejoin:miter;stroke-opacity:1;stroke-miterlimit:4;stroke-dasharray:none"
       d="m 81.75,68.5 v 119"
       id="path894" />
    <path
       style="fill:none;stroke:#000000;stroke-width:8;stroke-linecap:butt;stroke-linejoin:miter;stroke-miterlimit:4;stroke-dasharray:none;stroke-opacity:1"
       d="m 169.75,68.5 v 119"
       id="path896" />
    <path
       style="fill:none;stroke:#000000;stroke-width:8;stroke-linecap:butt;stroke-linejoin:miter;stroke-miterlimit:4;stroke-dasharray:none;stroke-opacity:1"
       d="m 171,135.75 h 80"
       id="path900" />
  </g>
</svg>
